<?xml version="1.0" ?>
<svg height="64" viewBox="0 0 64 64" width="64"
    xmlns="http://www.w3.org/2000/svg">
    <defs>
        <style>.cls-1{fill:none;stroke:#1B2226;stroke-linejoin:round;stroke-width:2px;}</style>
    </defs>
    <title/>
    <g data-name="13-Shopping Wish list" id="_13-Shopping_Wish_list">
        <path class="cls-1" d="M47,55a8,8,0,0,1-8,8H9a8,8,0,0,1-8-8H31a8,8,0,0,0,8,8"/>
        <path class="cls-1" d="M55,1a8,8,0,0,0-8,8V55"/>
        <path class="cls-1" d="M7,55V9a8,8,0,0,1,8-8H55a8,8,0,0,1,8,8H47"/>
        <rect class="cls-1" height="6" width="6" x="15" y="28"/>
        <rect class="cls-1" height="6" width="6" x="15" y="39"/>
        <line class="cls-1" x1="25" x2="27" y1="29" y2="29"/>
        <line class="cls-1" x1="29" x2="31" y1="29" y2="29"/>
        <line class="cls-1" x1="25" x2="39" y1="33" y2="33"/>
        <line class="cls-1" x1="25" x2="27" y1="40" y2="40"/>
        <line class="cls-1" x1="29" x2="31" y1="40" y2="40"/>
        <line class="cls-1" x1="25" x2="39" y1="44" y2="44"/>
        <line class="cls-1" x1="11" x2="43" y1="50" y2="50"/>
        <rect class="cls-1" height="13" rx="1" ry="1" width="14" x="15" y="10"/>
        <path class="cls-1" d="M19,14V7a.979.979,0,0,1,1-1h4a.979.979,0,0,1,1,1v7"/>
        <line class="cls-1" x1="15" x2="29" y1="19" y2="19"/>
        <polyline class="cls-1" points="32 10 40 10 40 14 32 14"/>
        <line class="cls-1" x1="32" x2="41" y1="18" y2="18"/>
        <line class="cls-1" x1="41" x2="35" y1="22" y2="22"/>
    </g>
</svg>